<svg width="100" height="147" viewBox="0 0 100 147" fill="none" xmlns="http://www.w3.org/2000/svg">
<rect x="0.5" y="0.5" width="99" height="99" rx="19.5" fill="#E5E5E5" stroke="#191919"/>
<path d="M10.9291 141.24C9.34509 141.24 7.98509 141 6.84909 140.52C5.71309 140.024 4.82509 139.288 4.18509 138.312C3.54509 137.336 3.20109 136.128 3.15309 134.688C3.13709 134.016 3.12909 133.296 3.12909 132.528C3.12909 131.744 3.13709 131.008 3.15309 130.32C3.20109 128.928 3.54509 127.76 4.18509 126.816C4.84109 125.872 5.74509 125.16 6.89709 124.68C8.04909 124.2 9.39309 123.96 10.9291 123.96C12.1611 123.96 13.2571 124.104 14.2171 124.392C15.1771 124.68 15.9931 125.072 16.6651 125.568C17.3531 126.064 17.8731 126.624 18.2251 127.248C18.5931 127.856 18.7851 128.488 18.8011 129.144C18.8011 129.288 18.7451 129.416 18.6331 129.528C18.5371 129.624 18.4171 129.672 18.2731 129.672H13.8571C13.6971 129.672 13.5691 129.648 13.4731 129.6C13.3771 129.536 13.2891 129.456 13.2091 129.36C13.1291 129.2 13.0011 129.016 12.8251 128.808C12.6651 128.6 12.4331 128.424 12.1291 128.28C11.8251 128.12 11.4251 128.04 10.9291 128.04C10.1771 128.04 9.59309 128.232 9.17709 128.616C8.76109 129 8.53709 129.608 8.50509 130.44C8.45709 131.784 8.45709 133.16 8.50509 134.568C8.53709 135.48 8.76909 136.144 9.20109 136.56C9.64909 136.96 10.2491 137.16 11.0011 137.16C11.4971 137.16 11.9371 137.08 12.3211 136.92C12.7211 136.76 13.0331 136.512 13.2571 136.176C13.4811 135.824 13.5931 135.376 13.5931 134.832V134.592H11.8891C11.7131 134.592 11.5611 134.528 11.4331 134.4C11.3211 134.272 11.2651 134.128 11.2651 133.968V131.736C11.2651 131.56 11.3211 131.416 11.4331 131.304C11.5611 131.176 11.7131 131.112 11.8891 131.112H18.2011C18.3771 131.112 18.5291 131.176 18.6571 131.304C18.7851 131.416 18.8491 131.56 18.8491 131.736V134.664C18.8491 136.072 18.5131 137.264 17.8411 138.24C17.1691 139.216 16.2411 139.96 15.0571 140.472C13.8731 140.984 12.4971 141.24 10.9291 141.24ZM21.905 141C21.745 141 21.601 140.944 21.473 140.832C21.345 140.704 21.281 140.552 21.281 140.376V124.824C21.281 124.648 21.345 124.504 21.473 124.392C21.601 124.264 21.745 124.2 21.905 124.2H25.985C26.161 124.2 26.305 124.264 26.417 124.392C26.545 124.504 26.609 124.648 26.609 124.824V140.376C26.609 140.552 26.545 140.704 26.417 140.832C26.305 140.944 26.161 141 25.985 141H21.905ZM33.9218 141C33.7458 141 33.5938 140.944 33.4658 140.832C33.3538 140.704 33.2978 140.552 33.2978 140.376V128.664H29.1698C28.9938 128.664 28.8418 128.608 28.7138 128.496C28.6018 128.368 28.5458 128.216 28.5458 128.04V124.824C28.5458 124.648 28.6018 124.504 28.7138 124.392C28.8418 124.264 28.9938 124.2 29.1698 124.2H42.6578C42.8338 124.2 42.9778 124.264 43.0898 124.392C43.2178 124.504 43.2818 124.648 43.2818 124.824V128.04C43.2818 128.216 43.2178 128.368 43.0898 128.496C42.9778 128.608 42.8338 128.664 42.6578 128.664H38.5298V140.376C38.5298 140.552 38.4658 140.704 38.3378 140.832C38.2258 140.944 38.0818 141 37.9058 141H33.9218ZM45.8581 141C45.6981 141 45.5541 140.944 45.4261 140.832C45.2981 140.72 45.2341 140.568 45.2341 140.376V124.824C45.2341 124.648 45.2981 124.504 45.4261 124.392C45.5541 124.264 45.6981 124.2 45.8581 124.2H49.7701C49.9461 124.2 50.0901 124.264 50.2021 124.392C50.3301 124.504 50.3941 124.648 50.3941 124.824V130.248H55.2901V124.824C55.2901 124.648 55.3461 124.504 55.4581 124.392C55.5861 124.264 55.7381 124.2 55.9141 124.2H59.8261C60.0021 124.2 60.1461 124.264 60.2581 124.392C60.3861 124.504 60.4501 124.648 60.4501 124.824V140.376C60.4501 140.552 60.3861 140.704 60.2581 140.832C60.1461 140.944 60.0021 141 59.8261 141H55.9141C55.7381 141 55.5861 140.944 55.4581 140.832C55.3461 140.704 55.2901 140.552 55.2901 140.376V134.808H50.3941V140.376C50.3941 140.552 50.3301 140.704 50.2021 140.832C50.0901 140.944 49.9461 141 49.7701 141H45.8581ZM70.813 141.24C69.325 141.24 68.013 141.008 66.877 140.544C65.757 140.08 64.877 139.36 64.237 138.384C63.613 137.392 63.301 136.144 63.301 134.64V124.824C63.301 124.648 63.365 124.504 63.493 124.392C63.621 124.264 63.765 124.2 63.925 124.2H67.837C68.013 124.2 68.157 124.264 68.269 124.392C68.397 124.504 68.461 124.648 68.461 124.824V134.568C68.461 135.384 68.661 136 69.061 136.416C69.461 136.832 70.037 137.04 70.789 137.04C71.541 137.04 72.109 136.832 72.493 136.416C72.893 136 73.093 135.384 73.093 134.568V124.824C73.093 124.648 73.157 124.504 73.285 124.392C73.413 124.264 73.565 124.2 73.741 124.2H77.629C77.805 124.2 77.949 124.264 78.061 124.392C78.189 124.504 78.253 124.648 78.253 124.824V134.64C78.253 136.144 77.941 137.392 77.317 138.384C76.693 139.36 75.821 140.08 74.701 140.544C73.581 141.008 72.285 141.24 70.813 141.24ZM81.7409 141C81.5809 141 81.4369 140.944 81.3089 140.832C81.1809 140.704 81.1169 140.552 81.1169 140.376V124.824C81.1169 124.648 81.1809 124.504 81.3089 124.392C81.4369 124.264 81.5809 124.2 81.7409 124.2H89.3969C90.8529 124.2 92.0449 124.392 92.9729 124.776C93.9009 125.16 94.5889 125.712 95.0369 126.432C95.4849 127.152 95.7089 128.04 95.7089 129.096C95.7089 129.64 95.5969 130.128 95.3729 130.56C95.1649 130.976 94.9089 131.328 94.6049 131.616C94.3009 131.888 94.0129 132.088 93.7409 132.216C94.3649 132.488 94.9089 132.952 95.3729 133.608C95.8369 134.248 96.0689 134.984 96.0689 135.816C96.0689 136.936 95.8129 137.88 95.3009 138.648C94.8049 139.416 94.0769 140 93.1169 140.4C92.1729 140.8 91.0129 141 89.6369 141H81.7409ZM86.2769 137.376H89.0849C89.6289 137.376 90.0289 137.216 90.2849 136.896C90.5409 136.56 90.6689 136.192 90.6689 135.792C90.6689 135.376 90.5329 135.016 90.2609 134.712C89.9889 134.392 89.5969 134.232 89.0849 134.232H86.2769V137.376ZM86.2769 130.704H88.8449C89.3569 130.704 89.7329 130.56 89.9729 130.272C90.2129 129.984 90.3329 129.648 90.3329 129.264C90.3329 128.88 90.2129 128.544 89.9729 128.256C89.7329 127.968 89.3569 127.824 88.8449 127.824H86.2769V130.704Z" fill="#191919"/>
<path fill-rule="evenodd" clip-rule="evenodd" d="M50.0865 16.6665C31.7232 16.6665 16.8398 31.5498 16.8398 49.9132C16.8398 64.5998 26.3632 77.0632 39.5765 81.4632C41.2398 81.7632 41.8398 80.7398 41.8398 79.8598C41.8398 79.0698 41.8132 76.9765 41.8032 74.2065C32.5532 76.2132 30.5998 69.7465 30.5998 69.7465C29.0932 65.9065 26.9098 64.8832 26.9098 64.8832C23.8932 62.8198 27.1398 62.8665 27.1398 62.8665C30.4798 63.0998 32.2298 66.2932 32.2298 66.2932C35.1965 71.3732 40.0165 69.9065 41.9032 69.0565C42.2065 66.9065 43.0732 65.4398 44.0198 64.6098C36.6398 63.7732 28.8798 60.9198 28.8798 48.1765C28.8798 44.5532 30.1765 41.5798 32.2932 39.2598C31.9565 38.4165 30.8065 35.0332 32.6232 30.4598C32.6232 30.4598 35.4132 29.5632 41.7632 33.8632C44.4752 33.1254 47.2726 32.7488 50.0832 32.7432C52.8938 32.7477 55.6914 33.1243 58.4032 33.8632C64.7565 29.5598 67.5432 30.4598 67.5432 30.4598C69.3598 35.0332 68.2198 38.4165 67.8732 39.2598C70.0065 41.5798 71.2865 44.5498 71.2865 48.1765C71.2865 60.9532 63.5198 63.7598 56.1132 64.5832C57.2965 65.6098 58.3632 67.6365 58.3632 70.7365C58.3632 75.1832 58.3232 78.7698 58.3232 79.8598C58.3232 80.7498 58.9165 81.7832 60.6132 81.4565C73.8198 77.0498 83.3332 64.5965 83.3332 49.9132C83.3332 31.5498 68.4498 16.6665 50.0865 16.6665Z" fill="#191919"/>
</svg>
