<svg width="103" height="147" viewBox="0 0 103 147" fill="none" xmlns="http://www.w3.org/2000/svg">
<rect x="2.5" y="0.5" width="99" height="99" rx="19.5" fill="#E5E5E5" stroke="#191919"/>
<path d="M2.35419 141C2.19419 141 2.05019 140.944 1.92219 140.832C1.79419 140.704 1.73019 140.552 1.73019 140.376V124.824C1.73019 124.648 1.79419 124.504 1.92219 124.392C2.05019 124.264 2.19419 124.2 2.35419 124.2H9.19419C11.3702 124.2 13.0742 124.696 14.3062 125.688C15.5542 126.68 16.1782 128.064 16.1782 129.84C16.1782 130.96 15.9222 131.912 15.4102 132.696C14.8982 133.48 14.2262 134.096 13.3942 134.544L16.5142 140.208C16.5622 140.304 16.5862 140.392 16.5862 140.472C16.5862 140.616 16.5382 140.744 16.4422 140.856C16.3462 140.952 16.2262 141 16.0822 141H12.0262C11.7222 141 11.4902 140.928 11.3302 140.784C11.1702 140.624 11.0662 140.48 11.0182 140.352L8.61819 135.408H6.89019V140.376C6.89019 140.552 6.82619 140.704 6.69819 140.832C6.58619 140.944 6.44219 141 6.26619 141H2.35419ZM6.89019 131.448H9.17019C9.73019 131.448 10.1462 131.296 10.4182 130.992C10.6902 130.672 10.8262 130.28 10.8262 129.816C10.8262 129.336 10.6902 128.928 10.4182 128.592C10.1622 128.256 9.74619 128.088 9.17019 128.088H6.89019V131.448ZM19.3229 141C19.1629 141 19.0189 140.944 18.8909 140.832C18.7629 140.704 18.6989 140.552 18.6989 140.376V124.824C18.6989 124.648 18.7629 124.504 18.8909 124.392C19.0189 124.264 19.1629 124.2 19.3229 124.2H31.0829C31.2589 124.2 31.4109 124.264 31.5389 124.392C31.6669 124.504 31.7309 124.648 31.7309 124.824V127.656C31.7309 127.816 31.6669 127.96 31.5389 128.088C31.4109 128.216 31.2589 128.28 31.0829 128.28H23.6669V130.656H30.5549C30.7309 130.656 30.8829 130.72 31.0109 130.848C31.1389 130.96 31.2029 131.104 31.2029 131.28V133.872C31.2029 134.048 31.1389 134.2 31.0109 134.328C30.8829 134.44 30.7309 134.496 30.5549 134.496H23.6669V136.92H31.2749C31.4509 136.92 31.6029 136.984 31.7309 137.112C31.8589 137.24 31.9229 137.392 31.9229 137.568V140.376C31.9229 140.552 31.8589 140.704 31.7309 140.832C31.6029 140.944 31.4509 141 31.2749 141H19.3229ZM41.0266 141.24C39.3466 141.24 37.9466 141.008 36.8266 140.544C35.7226 140.064 34.8906 139.448 34.3306 138.696C33.7866 137.928 33.4986 137.12 33.4666 136.272C33.4666 136.128 33.5146 136.008 33.6106 135.912C33.7066 135.816 33.8266 135.768 33.9706 135.768H37.7866C38.0106 135.768 38.1866 135.808 38.3146 135.888C38.4426 135.952 38.5786 136.048 38.7226 136.176C38.8666 136.352 39.0346 136.52 39.2266 136.68C39.4186 136.824 39.6666 136.944 39.9706 137.04C40.2746 137.12 40.6266 137.16 41.0266 137.16C41.7626 137.16 42.3306 137.064 42.7306 136.872C43.1306 136.664 43.3306 136.384 43.3306 136.032C43.3306 135.76 43.2186 135.536 42.9946 135.36C42.7866 135.184 42.4266 135.024 41.9146 134.88C41.4026 134.736 40.7066 134.584 39.8266 134.424C38.5946 134.216 37.5306 133.912 36.6346 133.512C35.7386 133.096 35.0506 132.544 34.5706 131.856C34.1066 131.152 33.8746 130.288 33.8746 129.264C33.8746 128.224 34.1626 127.304 34.7386 126.504C35.3306 125.704 36.1466 125.08 37.1866 124.632C38.2426 124.184 39.4666 123.96 40.8586 123.96C42.0106 123.96 43.0266 124.112 43.9066 124.416C44.8026 124.72 45.5546 125.12 46.1626 125.616C46.7706 126.096 47.2346 126.616 47.5546 127.176C47.8746 127.736 48.0426 128.272 48.0586 128.784C48.0586 128.928 48.0026 129.056 47.8906 129.168C47.7946 129.264 47.6826 129.312 47.5546 129.312H43.5466C43.3546 129.312 43.1866 129.28 43.0426 129.216C42.9146 129.152 42.7946 129.048 42.6826 128.904C42.6026 128.68 42.4026 128.48 42.0826 128.304C41.7626 128.128 41.3546 128.04 40.8586 128.04C40.3146 128.04 39.8986 128.136 39.6106 128.328C39.3226 128.504 39.1786 128.768 39.1786 129.12C39.1786 129.36 39.2666 129.568 39.4426 129.744C39.6186 129.92 39.9306 130.08 40.3786 130.224C40.8266 130.352 41.4506 130.496 42.2506 130.656C43.7706 130.88 44.9946 131.2 45.9226 131.616C46.8666 132.032 47.5546 132.576 47.9866 133.248C48.4186 133.92 48.6346 134.76 48.6346 135.768C48.6346 136.904 48.3066 137.88 47.6506 138.696C46.9946 139.512 46.0906 140.144 44.9386 140.592C43.8026 141.024 42.4986 141.24 41.0266 141.24ZM58.0591 141.24C56.5711 141.24 55.2591 141.008 54.1231 140.544C53.0031 140.08 52.1231 139.36 51.4831 138.384C50.8591 137.392 50.5471 136.144 50.5471 134.64V124.824C50.5471 124.648 50.6111 124.504 50.7391 124.392C50.8671 124.264 51.0111 124.2 51.1711 124.2H55.0831C55.2591 124.2 55.4031 124.264 55.5151 124.392C55.6431 124.504 55.7071 124.648 55.7071 124.824V134.568C55.7071 135.384 55.9071 136 56.3071 136.416C56.7071 136.832 57.2831 137.04 58.0351 137.04C58.7871 137.04 59.3551 136.832 59.7391 136.416C60.1391 136 60.3391 135.384 60.3391 134.568V124.824C60.3391 124.648 60.4031 124.504 60.5311 124.392C60.6591 124.264 60.8111 124.2 60.9871 124.2H64.8751C65.0511 124.2 65.1951 124.264 65.3071 124.392C65.4351 124.504 65.4991 124.648 65.4991 124.824V134.64C65.4991 136.144 65.1871 137.392 64.5631 138.384C63.9391 139.36 63.0671 140.08 61.9471 140.544C60.8271 141.008 59.5311 141.24 58.0591 141.24ZM69.011 141C68.835 141 68.683 140.944 68.555 140.832C68.427 140.704 68.363 140.552 68.363 140.376V124.824C68.363 124.648 68.427 124.504 68.555 124.392C68.683 124.264 68.835 124.2 69.011 124.2H72.203C72.491 124.2 72.707 124.28 72.851 124.44C72.995 124.6 73.091 124.712 73.139 124.776L76.979 131.448L80.819 124.776C80.867 124.712 80.963 124.6 81.107 124.44C81.251 124.28 81.467 124.2 81.755 124.2H84.947C85.123 124.2 85.267 124.264 85.379 124.392C85.507 124.504 85.571 124.648 85.571 124.824V140.376C85.571 140.552 85.507 140.704 85.379 140.832C85.267 140.944 85.123 141 84.947 141H81.347C81.171 141 81.019 140.944 80.891 140.832C80.779 140.704 80.723 140.552 80.723 140.376V132.6L78.563 136.392C78.483 136.52 78.379 136.648 78.251 136.776C78.123 136.904 77.939 136.968 77.699 136.968H76.235C76.011 136.968 75.835 136.904 75.707 136.776C75.579 136.648 75.475 136.52 75.395 136.392L73.235 132.6V140.376C73.235 140.552 73.171 140.704 73.043 140.832C72.931 140.944 72.787 141 72.611 141H69.011ZM89.1901 141C89.0301 141 88.8861 140.944 88.7581 140.832C88.6301 140.704 88.5661 140.552 88.5661 140.376V124.824C88.5661 124.648 88.6301 124.504 88.7581 124.392C88.8861 124.264 89.0301 124.2 89.1901 124.2H100.95C101.126 124.2 101.278 124.264 101.406 124.392C101.534 124.504 101.598 124.648 101.598 124.824V127.656C101.598 127.816 101.534 127.96 101.406 128.088C101.278 128.216 101.126 128.28 100.95 128.28H93.5341V130.656H100.422C100.598 130.656 100.75 130.72 100.878 130.848C101.006 130.96 101.07 131.104 101.07 131.28V133.872C101.07 134.048 101.006 134.2 100.878 134.328C100.75 134.44 100.598 134.496 100.422 134.496H93.5341V136.92H101.142C101.318 136.92 101.47 136.984 101.598 137.112C101.726 137.24 101.79 137.392 101.79 137.568V140.376C101.79 140.552 101.726 140.704 101.598 140.832C101.47 140.944 101.318 141 101.142 141H89.1901Z" fill="#191919"/>
<path d="M68.2657 28H43.0515C37.2614 28 31.7548 30.3163 27.5398 34.5246C23.3217 38.7329 21 44.2266 21 50C21 55.7766 23.3217 61.2703 27.5398 65.4754C31.7548 69.6837 37.2614 72 43.0515 72H68.2531V65.7143H43.0515C38.9467 65.7143 35.0184 64.0517 31.9942 61.0314C28.9669 58.0143 27.3004 54.0951 27.3004 50C27.3004 45.908 28.9669 41.9889 31.9942 38.9686C35.0184 35.9483 38.9467 34.2857 43.0515 34.2857H68.2531V31.1429L68.2563 34.2857H68.2657C70.7544 34.2857 73.1139 35.2726 74.9095 37.0703C76.7083 38.8649 77.7006 41.2251 77.7038 43.7206C77.7028 44.9548 77.4561 46.1766 76.978 47.3149C76.5 48.4533 75.8001 49.4856 74.919 50.352C74.0471 51.2325 73.0093 51.9323 71.8653 52.4113C70.7214 52.8903 69.4938 53.1389 68.2531 53.1429H43.0515C42.6408 53.1379 42.2351 53.052 41.8578 52.8902C41.4804 52.7284 41.1388 52.4939 40.8526 52.2C40.5563 51.9141 40.3197 51.5725 40.1564 51.1949C39.9931 50.8173 39.9064 50.4112 39.9013 50C39.9013 49.208 40.2478 48.4066 40.8495 47.8063C41.1352 47.5105 41.477 47.2743 41.855 47.1113C42.233 46.9484 42.6397 46.862 43.0515 46.8571H68.2531V40.5714H43.0515C40.5628 40.5714 38.197 41.5614 36.3919 43.3654C34.59 45.1631 33.6008 47.5203 33.6008 50C33.6008 52.4797 34.59 54.84 36.3982 56.644C37.2677 57.5238 38.3034 58.2229 39.4454 58.7009C40.5874 59.1788 41.813 59.4262 43.0515 59.4286H68.2563C70.3234 59.4271 72.3698 59.0173 74.2773 58.2227C76.1848 57.4281 77.9158 56.2646 79.3702 54.7991C80.8375 53.3476 82.002 51.6206 82.7967 49.7176C83.5913 47.8147 84.0003 45.7735 84 43.7121C83.9997 41.6506 83.5901 39.6096 82.795 37.7069C81.9998 35.8041 80.8348 34.0774 79.3671 32.6263C77.916 31.1601 76.1873 29.9962 74.2816 29.202C72.3759 28.4078 70.331 27.9993 68.2657 28V28Z" fill="#191919"/>
</svg>
