<svg width="120" height="147" viewBox="0 0 120 147" fill="none" xmlns="http://www.w3.org/2000/svg">
<rect x="11.5" y="0.5" width="99" height="99" rx="19.5" fill="#131317" stroke="#E5E5E5"/>
<path d="M2.49872 141C2.33872 141 2.19472 140.944 2.06672 140.832C1.93872 140.704 1.87472 140.552 1.87472 140.376V124.824C1.87472 124.648 1.93872 124.504 2.06672 124.392C2.19472 124.264 2.33872 124.2 2.49872 124.2H10.1547C11.6107 124.2 12.8027 124.392 13.7307 124.776C14.6587 125.16 15.3467 125.712 15.7947 126.432C16.2427 127.152 16.4667 128.04 16.4667 129.096C16.4667 129.64 16.3547 130.128 16.1307 130.56C15.9227 130.976 15.6667 131.328 15.3627 131.616C15.0587 131.888 14.7707 132.088 14.4987 132.216C15.1227 132.488 15.6667 132.952 16.1307 133.608C16.5947 134.248 16.8267 134.984 16.8267 135.816C16.8267 136.936 16.5707 137.88 16.0587 138.648C15.5627 139.416 14.8347 140 13.8747 140.4C12.9307 140.8 11.7707 141 10.3947 141H2.49872ZM7.03472 137.376H9.84272C10.3867 137.376 10.7867 137.216 11.0427 136.896C11.2987 136.56 11.4267 136.192 11.4267 135.792C11.4267 135.376 11.2907 135.016 11.0187 134.712C10.7467 134.392 10.3547 134.232 9.84272 134.232H7.03472V137.376ZM7.03472 130.704H9.60272C10.1147 130.704 10.4907 130.56 10.7307 130.272C10.9707 129.984 11.0907 129.648 11.0907 129.264C11.0907 128.88 10.9707 128.544 10.7307 128.256C10.4907 127.968 10.1147 127.824 9.60272 127.824H7.03472V130.704ZM19.7487 141C19.5887 141 19.4447 140.944 19.3167 140.832C19.1887 140.704 19.1247 140.552 19.1247 140.376V124.824C19.1247 124.648 19.1887 124.504 19.3167 124.392C19.4447 124.264 19.5887 124.2 19.7487 124.2H31.5087C31.6847 124.2 31.8367 124.264 31.9647 124.392C32.0927 124.504 32.1567 124.648 32.1567 124.824V127.656C32.1567 127.816 32.0927 127.96 31.9647 128.088C31.8367 128.216 31.6847 128.28 31.5087 128.28H24.0927V130.656H30.9807C31.1567 130.656 31.3087 130.72 31.4367 130.848C31.5647 130.96 31.6287 131.104 31.6287 131.28V133.872C31.6287 134.048 31.5647 134.2 31.4367 134.328C31.3087 134.44 31.1567 134.496 30.9807 134.496H24.0927V136.92H31.7007C31.8767 136.92 32.0287 136.984 32.1567 137.112C32.2847 137.24 32.3487 137.392 32.3487 137.568V140.376C32.3487 140.552 32.2847 140.704 32.1567 140.832C32.0287 140.944 31.8767 141 31.7007 141H19.7487ZM35.4284 141C35.2684 141 35.1244 140.944 34.9964 140.832C34.8684 140.72 34.8044 140.568 34.8044 140.376V124.824C34.8044 124.648 34.8684 124.504 34.9964 124.392C35.1244 124.264 35.2684 124.2 35.4284 124.2H39.3404C39.5164 124.2 39.6604 124.264 39.7724 124.392C39.9004 124.504 39.9644 124.648 39.9644 124.824V130.248H44.8604V124.824C44.8604 124.648 44.9164 124.504 45.0284 124.392C45.1564 124.264 45.3084 124.2 45.4844 124.2H49.3964C49.5724 124.2 49.7164 124.264 49.8284 124.392C49.9564 124.504 50.0204 124.648 50.0204 124.824V140.376C50.0204 140.552 49.9564 140.704 49.8284 140.832C49.7164 140.944 49.5724 141 49.3964 141H45.4844C45.3084 141 45.1564 140.944 45.0284 140.832C44.9164 140.704 44.8604 140.552 44.8604 140.376V134.808H39.9644V140.376C39.9644 140.552 39.9004 140.704 39.7724 140.832C39.6604 140.944 39.5164 141 39.3404 141H35.4284ZM52.1513 141C52.0073 141 51.8793 140.952 51.7673 140.856C51.6713 140.744 51.6233 140.616 51.6233 140.472C51.6233 140.408 51.6393 140.352 51.6713 140.304L57.1433 124.944C57.1913 124.768 57.2953 124.6 57.4553 124.44C57.6313 124.28 57.8633 124.2 58.1513 124.2H62.5433C62.8473 124.2 63.0793 124.28 63.2393 124.44C63.3993 124.6 63.5033 124.768 63.5513 124.944L69.0473 140.304C69.0633 140.352 69.0713 140.408 69.0713 140.472C69.0713 140.616 69.0153 140.744 68.9033 140.856C68.8073 140.952 68.6873 141 68.5433 141H64.8473C64.5753 141 64.3753 140.936 64.2473 140.808C64.1193 140.68 64.0313 140.56 63.9833 140.448L63.2393 138.432H57.4553L56.7113 140.448C56.6633 140.56 56.5753 140.68 56.4473 140.808C56.3353 140.936 56.1353 141 55.8473 141H52.1513ZM58.5593 134.376H62.1353L60.3353 128.976L58.5593 134.376ZM71.2878 141C71.1278 141 70.9838 140.944 70.8558 140.832C70.7278 140.704 70.6638 140.552 70.6638 140.376V124.824C70.6638 124.648 70.7278 124.504 70.8558 124.392C70.9838 124.264 71.1278 124.2 71.2878 124.2H74.4798C74.7678 124.2 74.9758 124.272 75.1038 124.416C75.2318 124.544 75.3198 124.64 75.3678 124.704L80.3118 132.648V124.824C80.3118 124.648 80.3758 124.504 80.5038 124.392C80.6318 124.264 80.7758 124.2 80.9358 124.2H84.5598C84.7358 124.2 84.8798 124.264 84.9918 124.392C85.1198 124.504 85.1838 124.648 85.1838 124.824V140.376C85.1838 140.552 85.1198 140.704 84.9918 140.832C84.8798 140.944 84.7358 141 84.5598 141H81.3918C81.0878 141 80.8718 140.936 80.7438 140.808C80.6158 140.664 80.5278 140.56 80.4798 140.496L75.5358 133.008V140.376C75.5358 140.552 75.4718 140.704 75.3438 140.832C75.2318 140.944 75.0878 141 74.9118 141H71.2878ZM95.443 141.24C93.923 141.24 92.595 141.008 91.459 140.544C90.323 140.064 89.427 139.344 88.771 138.384C88.131 137.424 87.779 136.208 87.715 134.736C87.699 134.08 87.691 133.376 87.691 132.624C87.691 131.872 87.699 131.152 87.715 130.464C87.779 129.024 88.139 127.824 88.795 126.864C89.467 125.888 90.371 125.16 91.507 124.68C92.659 124.2 93.971 123.96 95.443 123.96C96.499 123.96 97.483 124.088 98.395 124.344C99.323 124.584 100.147 124.96 100.867 125.472C101.587 125.968 102.155 126.592 102.571 127.344C102.987 128.08 103.203 128.944 103.219 129.936C103.219 130.08 103.163 130.2 103.051 130.296C102.955 130.392 102.835 130.44 102.691 130.44H98.635C98.395 130.44 98.219 130.392 98.107 130.296C97.995 130.2 97.899 130.032 97.819 129.792C97.611 129.104 97.307 128.64 96.907 128.4C96.507 128.16 96.019 128.04 95.443 128.04C94.739 128.04 94.179 128.232 93.763 128.616C93.347 128.984 93.123 129.64 93.091 130.584C93.043 131.896 93.043 133.24 93.091 134.616C93.123 135.56 93.347 136.224 93.763 136.608C94.179 136.976 94.739 137.16 95.443 137.16C96.019 137.16 96.507 137.032 96.907 136.776C97.323 136.52 97.627 136.064 97.819 135.408C97.883 135.152 97.971 134.984 98.083 134.904C98.211 134.808 98.395 134.76 98.635 134.76H102.691C102.835 134.76 102.955 134.808 103.051 134.904C103.163 135 103.219 135.12 103.219 135.264C103.203 136.256 102.987 137.128 102.571 137.88C102.155 138.616 101.587 139.24 100.867 139.752C100.147 140.248 99.323 140.624 98.395 140.88C97.483 141.12 96.499 141.24 95.443 141.24ZM106.046 141C105.886 141 105.742 140.944 105.614 140.832C105.486 140.704 105.422 140.552 105.422 140.376V124.824C105.422 124.648 105.486 124.504 105.614 124.392C105.742 124.264 105.886 124.2 106.046 124.2H117.806C117.982 124.2 118.134 124.264 118.262 124.392C118.39 124.504 118.454 124.648 118.454 124.824V127.656C118.454 127.816 118.39 127.96 118.262 128.088C118.134 128.216 117.982 128.28 117.806 128.28H110.39V130.656H117.278C117.454 130.656 117.606 130.72 117.734 130.848C117.862 130.96 117.926 131.104 117.926 131.28V133.872C117.926 134.048 117.862 134.2 117.734 134.328C117.606 134.44 117.454 134.496 117.278 134.496H110.39V136.92H117.998C118.174 136.92 118.326 136.984 118.454 137.112C118.582 137.24 118.646 137.392 118.646 137.568V140.376C118.646 140.552 118.582 140.704 118.454 140.832C118.326 140.944 118.174 141 117.998 141H106.046Z" fill="#E5E5E5"/>
<path d="M47.0098 29.1035C48.9732 29.1035 50.7398 29.2735 52.3598 29.6202C53.9698 29.9635 55.3432 30.5302 56.5032 31.3135C57.6465 32.0968 58.5398 33.1368 59.1832 34.4435C59.8065 35.7335 60.1165 37.3468 60.1165 39.2535C60.1165 41.3202 59.6498 43.0468 58.7132 44.4235C57.7698 45.8035 56.3798 46.9335 54.5265 47.8069C57.0498 48.5368 58.9198 49.8135 60.1598 51.6269C61.4065 53.4569 62.0165 55.6468 62.0165 58.2135C62.0165 60.2969 61.6198 62.0868 60.8232 63.5902C60.0555 65.0711 58.9417 66.345 57.5765 67.3035C56.1624 68.2882 54.5829 69.0108 52.9132 69.4368C51.1625 69.8964 49.3598 70.1272 47.5498 70.1235H27.6665V29.1035H47.0098ZM45.8398 45.6768C47.4398 45.6768 48.7665 45.2969 49.8132 44.5268C50.8532 43.7668 51.3565 42.5135 51.3565 40.7969C51.3565 39.8435 51.1865 39.0568 50.8532 38.4402C50.5284 37.8469 50.0478 37.3536 49.4632 37.0135C48.8513 36.6506 48.1759 36.4074 47.4732 36.2968C46.7071 36.154 45.929 36.0859 45.1498 36.0935H36.6998V45.6768H45.8398ZM46.3432 63.1402C47.2332 63.1402 48.0798 63.0635 48.8765 62.8835C49.6798 62.7102 50.3932 62.4302 50.9998 62.0135C51.6065 61.6135 52.1065 61.0702 52.4665 60.3769C52.8298 59.6902 53.0065 58.7935 53.0065 57.7168C53.0065 55.6035 52.4098 54.1002 51.2298 53.1902C50.0465 52.2902 48.4598 51.8435 46.5165 51.8435H36.6998V63.1435H46.3432V63.1402ZM74.8932 63.0035C76.1165 64.1968 77.8798 64.7968 80.1732 64.7968C81.8165 64.7968 83.2365 64.3802 84.4332 63.5535C85.6132 62.7235 86.3332 61.8368 86.6098 60.9202H93.7932C92.6398 64.4935 90.8898 67.0469 88.4965 68.5835C86.1332 70.1269 83.2565 70.8935 79.8965 70.8935C77.5565 70.8935 75.4498 70.5168 73.5632 69.7702C71.7523 69.065 70.1158 67.9755 68.7665 66.5769C67.4395 65.1456 66.4136 63.4623 65.7498 61.6269C65.0202 59.5972 64.659 57.4535 64.6832 55.2969C64.6832 53.0768 65.0532 51.0002 65.7798 49.0835C66.4696 47.2308 67.5289 45.5376 68.8932 44.1069C70.2432 42.7069 71.8432 41.6035 73.7065 40.7935C75.6659 39.9694 77.7744 39.5586 79.8998 39.5869C82.4132 39.5869 84.6098 40.0735 86.4965 41.0535C88.3261 41.989 89.9125 43.338 91.1298 44.9935C92.3398 46.6369 93.2032 48.5202 93.7398 50.6302C94.2765 52.7369 94.4632 54.9368 94.3098 57.2402H72.8732C72.8765 59.5869 73.6665 61.8102 74.8932 63.0035ZM84.2665 47.4002C83.2965 46.3269 81.6565 45.7468 79.6498 45.7468C78.3465 45.7468 77.2698 45.9635 76.4032 46.4102C75.6107 46.8104 74.9077 47.3672 74.3365 48.0468C73.8349 48.6639 73.463 49.3759 73.2432 50.1402C73.0509 50.7775 72.9269 51.4334 72.8732 52.0968H86.1465C85.9532 50.0168 85.2398 48.4802 84.2665 47.4002ZM71.2065 31.8568H87.8365V35.9068H71.2065V31.8568Z" fill="#E5E5E5"/>
</svg>
