<svg width="100" height="147" viewBox="0 0 100 147" fill="none" xmlns="http://www.w3.org/2000/svg">
<rect x="0.5" y="0.5" width="99" height="99" rx="19.5" fill="#131317" stroke="#E5E5E5"/>
<path d="M19.0619 141.24C17.4779 141.24 16.1179 141 14.9819 140.52C13.8459 140.024 12.9579 139.288 12.3179 138.312C11.6779 137.336 11.3339 136.128 11.2859 134.688C11.2699 134.016 11.2619 133.296 11.2619 132.528C11.2619 131.744 11.2699 131.008 11.2859 130.32C11.3339 128.928 11.6779 127.76 12.3179 126.816C12.9739 125.872 13.8779 125.16 15.0299 124.68C16.1819 124.2 17.5259 123.96 19.0619 123.96C20.2939 123.96 21.3899 124.104 22.3499 124.392C23.3099 124.68 24.1259 125.072 24.7979 125.568C25.4859 126.064 26.0059 126.624 26.3579 127.248C26.7259 127.856 26.9179 128.488 26.9339 129.144C26.9339 129.288 26.8779 129.416 26.7659 129.528C26.6699 129.624 26.5499 129.672 26.4059 129.672H21.9899C21.8299 129.672 21.7019 129.648 21.6059 129.6C21.5099 129.536 21.4219 129.456 21.3419 129.36C21.2619 129.2 21.1339 129.016 20.9579 128.808C20.7979 128.6 20.5659 128.424 20.2619 128.28C19.9579 128.12 19.5579 128.04 19.0619 128.04C18.3099 128.04 17.7259 128.232 17.3099 128.616C16.8939 129 16.6699 129.608 16.6379 130.44C16.5899 131.784 16.5899 133.16 16.6379 134.568C16.6699 135.48 16.9019 136.144 17.3339 136.56C17.7819 136.96 18.3819 137.16 19.1339 137.16C19.6299 137.16 20.0699 137.08 20.4539 136.92C20.8539 136.76 21.1659 136.512 21.3899 136.176C21.6139 135.824 21.7259 135.376 21.7259 134.832V134.592H20.0219C19.8459 134.592 19.6939 134.528 19.5659 134.4C19.4539 134.272 19.3979 134.128 19.3979 133.968V131.736C19.3979 131.56 19.4539 131.416 19.5659 131.304C19.6939 131.176 19.8459 131.112 20.0219 131.112H26.3339C26.5099 131.112 26.6619 131.176 26.7899 131.304C26.9179 131.416 26.9819 131.56 26.9819 131.736V134.664C26.9819 136.072 26.6459 137.264 25.9739 138.24C25.3019 139.216 24.3739 139.96 23.1899 140.472C22.0059 140.984 20.6299 141.24 19.0619 141.24ZM30.0618 141C29.8858 141 29.7338 140.944 29.6058 140.832C29.4778 140.704 29.4138 140.552 29.4138 140.376V124.824C29.4138 124.648 29.4778 124.504 29.6058 124.392C29.7338 124.264 29.8858 124.2 30.0618 124.2H33.2538C33.5418 124.2 33.7578 124.28 33.9018 124.44C34.0458 124.6 34.1418 124.712 34.1898 124.776L38.0298 131.448L41.8698 124.776C41.9178 124.712 42.0138 124.6 42.1578 124.44C42.3018 124.28 42.5178 124.2 42.8058 124.2H45.9978C46.1738 124.2 46.3178 124.264 46.4298 124.392C46.5578 124.504 46.6218 124.648 46.6218 124.824V140.376C46.6218 140.552 46.5578 140.704 46.4298 140.832C46.3178 140.944 46.1738 141 45.9978 141H42.3978C42.2218 141 42.0698 140.944 41.9418 140.832C41.8298 140.704 41.7738 140.552 41.7738 140.376V132.6L39.6138 136.392C39.5338 136.52 39.4298 136.648 39.3018 136.776C39.1738 136.904 38.9898 136.968 38.7498 136.968H37.2858C37.0618 136.968 36.8858 136.904 36.7578 136.776C36.6298 136.648 36.5258 136.52 36.4458 136.392L34.2858 132.6V140.376C34.2858 140.552 34.2218 140.704 34.0938 140.832C33.9818 140.944 33.8378 141 33.6618 141H30.0618ZM48.7529 141C48.6089 141 48.4809 140.952 48.3689 140.856C48.2729 140.744 48.2249 140.616 48.2249 140.472C48.2249 140.408 48.2409 140.352 48.2729 140.304L53.7449 124.944C53.7929 124.768 53.8969 124.6 54.0569 124.44C54.2329 124.28 54.4649 124.2 54.7529 124.2H59.1449C59.4489 124.2 59.6809 124.28 59.8409 124.44C60.0009 124.6 60.1049 124.768 60.1529 124.944L65.6489 140.304C65.6649 140.352 65.6729 140.408 65.6729 140.472C65.6729 140.616 65.6169 140.744 65.5049 140.856C65.4089 140.952 65.2889 141 65.1449 141H61.4489C61.1769 141 60.9769 140.936 60.8489 140.808C60.7209 140.68 60.6329 140.56 60.5849 140.448L59.8409 138.432H54.0569L53.3129 140.448C53.2649 140.56 53.1769 140.68 53.0489 140.808C52.9369 140.936 52.7369 141 52.4489 141H48.7529ZM55.1609 134.376H58.7369L56.9369 128.976L55.1609 134.376ZM67.8893 141C67.7293 141 67.5853 140.944 67.4573 140.832C67.3293 140.704 67.2653 140.552 67.2653 140.376V124.824C67.2653 124.648 67.3293 124.504 67.4573 124.392C67.5853 124.264 67.7293 124.2 67.8893 124.2H71.9693C72.1453 124.2 72.2893 124.264 72.4013 124.392C72.5293 124.504 72.5933 124.648 72.5933 124.824V140.376C72.5933 140.552 72.5293 140.704 72.4013 140.832C72.2893 140.944 72.1453 141 71.9693 141H67.8893ZM76.1862 141C76.0262 141 75.8822 140.944 75.7542 140.832C75.6262 140.704 75.5622 140.552 75.5622 140.376V124.824C75.5622 124.648 75.6262 124.504 75.7542 124.392C75.8822 124.264 76.0262 124.2 76.1862 124.2H80.1702C80.3462 124.2 80.4982 124.264 80.6262 124.392C80.7542 124.504 80.8182 124.648 80.8182 124.824V136.728H87.7542C87.9302 136.728 88.0822 136.792 88.2102 136.92C88.3382 137.032 88.4022 137.176 88.4022 137.352V140.376C88.4022 140.552 88.3382 140.704 88.2102 140.832C88.0822 140.944 87.9302 141 87.7542 141H76.1862Z" fill="#E5E5E5"/>
<path d="M76.9153 12.6454L71.7971 17.9473L50.005 39.42L28.2128 17.7353L23.0946 12.4334C21.8889 11.1108 20.417 10.2863 18.8613 10.0621C17.3056 9.83788 15.7345 10.2238 14.3426 11.172C12.9507 12.1202 11.7992 13.589 11.0307 15.3965C10.2623 17.2039 9.9106 19.2706 10.0193 21.3405V82.7894C10.0193 84.7018 10.5923 86.5358 11.6121 87.8881C12.6319 89.2403 14.0151 90 15.4574 90H28.2128V49.0694L50.005 70.7541L71.7971 49.0694V90H84.5526C85.9948 90 87.378 89.2403 88.3978 87.8881C89.4177 86.5358 89.9906 84.7018 89.9906 82.7894V21.3405C90.0657 19.2885 89.6896 17.2517 88.908 15.4778C88.1264 13.7039 86.973 12.2693 85.588 11.3482C84.203 10.4272 82.6461 10.0595 81.1064 10.2898C79.5668 10.5201 78.1107 11.3385 76.9153 12.6454Z" fill="#E5E5E5"/>
</svg>
