<svg width="117" height="147" viewBox="0 0 117 147" fill="none" xmlns="http://www.w3.org/2000/svg">
<rect x="9.5" y="0.5" width="99" height="99" rx="19.5" fill="#191919" stroke="#E5E5E5"/>
<path d="M2.60419 141C2.44419 141 2.30019 140.944 2.17219 140.832C2.04419 140.704 1.98019 140.552 1.98019 140.376V124.824C1.98019 124.648 2.04419 124.504 2.17219 124.392C2.30019 124.264 2.44419 124.2 2.60419 124.2H6.58819C6.76419 124.2 6.91619 124.264 7.04419 124.392C7.17219 124.504 7.23619 124.648 7.23619 124.824V136.728H14.1722C14.3482 136.728 14.5002 136.792 14.6282 136.92C14.7562 137.032 14.8202 137.176 14.8202 137.352V140.376C14.8202 140.552 14.7562 140.704 14.6282 140.832C14.5002 140.944 14.3482 141 14.1722 141H2.60419ZM17.2761 141C17.1161 141 16.9721 140.944 16.8441 140.832C16.7161 140.704 16.6521 140.552 16.6521 140.376V124.824C16.6521 124.648 16.7161 124.504 16.8441 124.392C16.9721 124.264 17.1161 124.2 17.2761 124.2H21.3561C21.5321 124.2 21.6761 124.264 21.7881 124.392C21.9161 124.504 21.9801 124.648 21.9801 124.824V140.376C21.9801 140.552 21.9161 140.704 21.7881 140.832C21.6761 140.944 21.5321 141 21.3561 141H17.2761ZM25.5729 141C25.4129 141 25.2689 140.944 25.1409 140.832C25.0129 140.704 24.9489 140.552 24.9489 140.376V124.824C24.9489 124.648 25.0129 124.504 25.1409 124.392C25.2689 124.264 25.4129 124.2 25.5729 124.2H28.7649C29.0529 124.2 29.2609 124.272 29.3889 124.416C29.5169 124.544 29.6049 124.64 29.6529 124.704L34.5969 132.648V124.824C34.5969 124.648 34.6609 124.504 34.7889 124.392C34.9169 124.264 35.0609 124.2 35.2209 124.2H38.8449C39.0209 124.2 39.1649 124.264 39.2769 124.392C39.4049 124.504 39.4689 124.648 39.4689 124.824V140.376C39.4689 140.552 39.4049 140.704 39.2769 140.832C39.1649 140.944 39.0209 141 38.8449 141H35.6769C35.3729 141 35.1569 140.936 35.0289 140.808C34.9009 140.664 34.8129 140.56 34.7649 140.496L29.8209 133.008V140.376C29.8209 140.552 29.7569 140.704 29.6289 140.832C29.5169 140.944 29.3729 141 29.1969 141H25.5729ZM43.1042 141C42.9442 141 42.8002 140.944 42.6722 140.832C42.5442 140.704 42.4802 140.552 42.4802 140.376V124.824C42.4802 124.648 42.5442 124.504 42.6722 124.392C42.8002 124.264 42.9442 124.2 43.1042 124.2H46.9202C47.0962 124.2 47.2402 124.264 47.3522 124.392C47.4802 124.504 47.5442 124.648 47.5442 124.824V129.864L51.1202 124.704C51.2002 124.592 51.3122 124.48 51.4562 124.368C51.6002 124.256 51.8002 124.2 52.0562 124.2H56.4482C56.5922 124.2 56.7122 124.256 56.8082 124.368C56.9202 124.464 56.9762 124.584 56.9762 124.728C56.9762 124.824 56.9442 124.912 56.8802 124.992L51.8402 132.24L57.3122 140.208C57.3762 140.272 57.4082 140.36 57.4082 140.472C57.4082 140.616 57.3522 140.744 57.2402 140.856C57.1442 140.952 57.0242 141 56.8802 141H52.3442C52.0402 141 51.8082 140.928 51.6482 140.784C51.5042 140.64 51.4162 140.536 51.3842 140.472L47.5442 134.904V140.376C47.5442 140.552 47.4802 140.704 47.3522 140.832C47.2402 140.944 47.0962 141 46.9202 141H43.1042ZM59.6511 141C59.4911 141 59.3471 140.944 59.2191 140.832C59.0911 140.704 59.0271 140.552 59.0271 140.376V124.824C59.0271 124.648 59.0911 124.504 59.2191 124.392C59.3471 124.264 59.4911 124.2 59.6511 124.2H71.4111C71.5871 124.2 71.7391 124.264 71.8671 124.392C71.9951 124.504 72.0591 124.648 72.0591 124.824V127.656C72.0591 127.816 71.9951 127.96 71.8671 128.088C71.7391 128.216 71.5871 128.28 71.4111 128.28H63.9951V130.656H70.8831C71.0591 130.656 71.2111 130.72 71.3391 130.848C71.4671 130.96 71.5311 131.104 71.5311 131.28V133.872C71.5311 134.048 71.4671 134.2 71.3391 134.328C71.2111 134.44 71.0591 134.496 70.8831 134.496H63.9951V136.92H71.6031C71.7791 136.92 71.9311 136.984 72.0591 137.112C72.1871 137.24 72.2511 137.392 72.2511 137.568V140.376C72.2511 140.552 72.1871 140.704 72.0591 140.832C71.9311 140.944 71.7791 141 71.6031 141H59.6511ZM75.3308 141C75.1708 141 75.0268 140.944 74.8988 140.832C74.7708 140.704 74.7068 140.552 74.7068 140.376V124.824C74.7068 124.648 74.7708 124.504 74.8988 124.392C75.0268 124.264 75.1708 124.2 75.3308 124.2H81.9068C83.4588 124.2 84.8028 124.456 85.9388 124.968C87.0748 125.464 87.9708 126.2 88.6268 127.176C89.2828 128.152 89.6348 129.352 89.6828 130.776C89.7148 131.464 89.7308 132.072 89.7308 132.6C89.7308 133.128 89.7148 133.728 89.6828 134.4C89.6188 135.904 89.2748 137.144 88.6508 138.12C88.0428 139.096 87.1788 139.824 86.0588 140.304C84.9388 140.768 83.5948 141 82.0268 141H75.3308ZM79.8668 136.92H81.9068C82.4348 136.92 82.8828 136.832 83.2508 136.656C83.6188 136.48 83.9068 136.208 84.1148 135.84C84.3228 135.456 84.4348 134.968 84.4508 134.376C84.4668 133.912 84.4748 133.496 84.4748 133.128C84.4908 132.76 84.4908 132.392 84.4748 132.024C84.4748 131.656 84.4668 131.248 84.4508 130.8C84.4188 129.92 84.1628 129.28 83.6828 128.88C83.2188 128.48 82.5868 128.28 81.7868 128.28H79.8668V136.92ZM92.7917 141C92.6317 141 92.4877 140.944 92.3597 140.832C92.2317 140.704 92.1677 140.552 92.1677 140.376V124.824C92.1677 124.648 92.2317 124.504 92.3597 124.392C92.4877 124.264 92.6317 124.2 92.7917 124.2H96.8717C97.0477 124.2 97.1917 124.264 97.3037 124.392C97.4317 124.504 97.4957 124.648 97.4957 124.824V140.376C97.4957 140.552 97.4317 140.704 97.3037 140.832C97.1917 140.944 97.0477 141 96.8717 141H92.7917ZM101.089 141C100.929 141 100.785 140.944 100.657 140.832C100.529 140.704 100.465 140.552 100.465 140.376V124.824C100.465 124.648 100.529 124.504 100.657 124.392C100.785 124.264 100.929 124.2 101.089 124.2H104.281C104.569 124.2 104.777 124.272 104.905 124.416C105.033 124.544 105.121 124.64 105.169 124.704L110.113 132.648V124.824C110.113 124.648 110.177 124.504 110.305 124.392C110.433 124.264 110.577 124.2 110.737 124.2H114.361C114.537 124.2 114.681 124.264 114.793 124.392C114.921 124.504 114.985 124.648 114.985 124.824V140.376C114.985 140.552 114.921 140.704 114.793 140.832C114.681 140.944 114.537 141 114.361 141H111.193C110.889 141 110.673 140.936 110.545 140.808C110.417 140.664 110.329 140.56 110.281 140.496L105.337 133.008V140.376C105.337 140.552 105.273 140.704 105.145 140.832C105.033 140.944 104.889 141 104.713 141H101.089Z" fill="white"/>
<path d="M35.6102 33.99C39.6382 33.99 42.9036 30.7246 42.9036 26.6967C42.9036 22.6687 39.6382 19.4033 35.6102 19.4033C31.5822 19.4033 28.3169 22.6687 28.3169 26.6967C28.3169 30.7246 31.5822 33.99 35.6102 33.99Z" fill="white"/>
<path d="M49.7902 39.5166V79.9799H62.3536V59.9699C62.3536 54.6899 63.3469 49.5766 69.8936 49.5766C76.3502 49.5766 76.4302 55.6133 76.4302 60.3033V79.9833H89.0002V57.7933C89.0002 46.8933 86.6536 38.5166 73.9136 38.5166C67.7969 38.5166 63.6969 41.8733 62.0202 45.0499H61.8502V39.5166H49.7902ZM29.3169 39.5166H41.9002V79.9799H29.3169V39.5166Z" fill="white"/>
</svg>
